<svg xmlns="http://www.w3.org/2000/svg" viewBox="0 0 1440 320"><path fill="green" fill-opacity="1" d="M0,32L26.7,32C53.3,32,107,32,160,69.3C213.3,107,267,181,320,224C373.3,267,427,277,480,277.3C533.3,277,587,267,640,266.7C693.3,267,747,277,800,272C853.3,267,907,245,960,208C1013.3,171,1067,117,1120,128C1173.3,139,1227,213,1280,218.7C1333.3,224,1387,160,1413,128L1440,96L1440,320L1413.3,320C1386.7,320,1333,320,1280,320C1226.7,320,1173,320,1120,320C1066.7,320,1013,320,960,320C906.7,320,853,320,800,320C746.7,320,693,320,640,320C586.7,320,533,320,480,320C426.7,320,373,320,320,320C266.7,320,213,320,160,320C106.7,320,53,320,27,320L0,320Z"></path></svg>